<svg xmlns="http://www.w3.org/2000/svg" width="192" height="192" viewBox="0 0 192 192" fill="none">
  <rect width="192" height="192" rx="32" fill="#58CC02"/>
  <g transform="translate(48, 48) scale(4)">
    <path d="M9.5 2A2.5 2.5 0 0 1 12 4.5v.5a2.5 2.5 0 0 1 2.5 2.5v.5a3 3 0 0 1 1.86 2.65A3.5 3.5 0 0 1 12 15.5H9.5" stroke="white" stroke-width="1.5" fill="none" stroke-linecap="round" stroke-linejoin="round"/>
    <path d="M8 15.5h-2a2 2 0 0 1-2-2v-1.5" stroke="white" stroke-width="1.5" fill="none" stroke-linecap="round" stroke-linejoin="round"/>
    <path d="M6 10.5h1.5" stroke="white" stroke-width="1.5" fill="none" stroke-linecap="round" stroke-linejoin="round"/>
    <path d="M13 10.5a3 3 0 0 1-1.5 2.55" stroke="white" stroke-width="1.5" fill="none" stroke-linecap="round" stroke-linejoin="round"/>
    <circle cx="9.5" cy="10.5" r="1" fill="white"/>
    <path d="M15.5 18.5a9.5 3 0 0 0-12 0" stroke="white" stroke-width="1.2" fill="none" stroke-linecap="round"/>
    <circle cx="5" cy="8" r="1" fill="white"/>
    <circle cx="14" cy="8" r="1" fill="white"/>
  </g>
</svg>
